<?xml version="1.0" encoding="UTF-8"?>
<!-- Generator: visioncortex VTracer 0.6.12 -->
<svg version="1.1" xmlns="http://www.w3.org/2000/svg" width="695" height="589">
<path d="M0 0 C2.457 2.848 2.457 2.848 4.812 6.062 C5.686 7.235 6.561 8.407 7.438 9.578 C7.869 10.159 8.301 10.74 8.746 11.338 C10.539 13.715 12.419 16.015 14.312 18.312 C15.043 19.199 15.774 20.086 16.527 21 C16.935 21.495 16.935 21.495 19 24 C25.216 31.591 31.404 39.2 37.438 46.938 C41.54 52.197 45.746 57.362 50 62.5 C54.713 68.191 59.345 73.933 63.887 79.762 C67.369 84.221 70.922 88.617 74.5 93 C78.532 97.939 82.518 102.908 86.438 107.938 C90.557 113.222 94.788 118.403 99.062 123.562 C100.822 125.697 102.579 127.834 104.334 129.972 C105.413 131.286 106.495 132.598 107.58 133.907 C109.006 135.635 110.412 137.377 111.812 139.125 C112.603 140.097 113.393 141.069 114.207 142.07 C116.299 145.488 116.789 148.02 117 152 C116 155 116 155 114.137 156.699 C109.346 158.686 104.928 158.12 99.812 157.812 C98.675 157.757 97.538 157.702 96.366 157.645 C93.763 157.517 91.161 157.383 88.559 157.241 C83.332 156.96 78.104 156.718 72.875 156.477 C62.583 155.999 52.291 155.504 42 155 C41.861 156.213 41.723 157.426 41.58 158.675 C41.171 161.93 40.595 165.028 39.723 168.195 C39.462 169.143 39.201 170.09 38.933 171.066 C38.645 172.076 38.358 173.085 38.062 174.125 C37.756 175.204 37.45 176.283 37.134 177.395 C27.294 211.469 14.645 244.684 -4 275 C-4.413 275.68 -4.826 276.36 -5.251 277.06 C-16.527 295.594 -29.206 313.103 -44 329 C-45.131 330.234 -46.261 331.468 -47.391 332.703 C-58.302 344.575 -58.302 344.575 -63.969 349.281 C-66.08 351.068 -68.095 352.942 -70.112 354.835 C-87.546 371.138 -107.359 384.131 -128 396 C-128.712 396.41 -129.425 396.82 -130.159 397.242 C-173.887 422.093 -225.968 434.905 -275.812 439.312 C-276.244 439.351 -276.244 439.351 -278.426 439.544 C-287.602 440.23 -296.805 440.059 -306 440 C-306.108 412.983 -306.208 385.996 -305 359 C-296.707 361.606 -288.721 364.889 -280.688 368.188 C-278.548 369.062 -276.409 369.936 -274.269 370.809 C-272.852 371.388 -271.436 371.966 -270.019 372.545 C-264.024 374.995 -258.016 377.413 -252 379.812 C-251.585 379.978 -251.585 379.978 -249.487 380.815 C-247.658 381.544 -245.829 382.272 -244 383 C-244 383.66 -244 384.32 -244 385 C-245.307 386.17 -245.307 386.17 -247.156 387.469 C-247.499 387.711 -247.499 387.711 -249.233 388.935 C-249.607 389.193 -249.607 389.193 -251.5 390.5 C-251.881 390.766 -251.881 390.766 -253.81 392.114 C-259.613 396.131 -265.528 399.944 -271.557 403.613 C-274.748 405.56 -277.822 407.57 -280.836 409.785 C-284 412 -284 412 -286 412 C-286 412.66 -286 413.32 -286 414 C-256.01 406.252 -229.08 393.135 -204 375 C-203.409 374.58 -202.817 374.16 -202.208 373.727 C-195.265 368.792 -188.949 363.384 -182.75 357.566 C-180.456 355.426 -178.131 353.354 -175.75 351.312 C-164.984 341.969 -164.984 341.969 -163 338 C-162.34 338 -161.68 338 -161 338 C-160.871 337.711 -160.871 337.711 -160.219 336.246 C-158.894 333.805 -157.397 332.088 -155.5 330.062 C-142.118 315.258 -130.821 298.341 -121 281 C-120.599 280.296 -120.199 279.591 -119.786 278.866 C-112.572 266.053 -106.959 252.832 -102 239 C-101.679 238.11 -101.358 237.219 -101.027 236.302 C-94.375 217.532 -89.802 197.84 -88 178 C-88.593 178.003 -88.593 178.003 -91.595 178.016 C-131.254 178.175 -131.254 178.175 -148.375 177.688 C-149.488 177.665 -150.601 177.643 -151.747 177.619 C-157.17 177.43 -161.377 177.157 -166 174 C-168.682 169.977 -169.767 166.796 -169 162 C-166.45 156.332 -162.42 152.256 -157.984 148.012 C-155.524 145.517 -153.519 142.827 -151.52 139.957 C-149.547 137.416 -147.289 135.259 -145 133 C-143.019 130.916 -141.071 128.803 -139.125 126.688 C-138.595 126.113 -138.066 125.538 -137.52 124.946 C-134.196 121.328 -130.922 117.673 -127.707 113.957 C-125.664 111.614 -123.583 109.307 -121.5 107 C-118.849 104.063 -116.217 101.114 -113.625 98.125 C-111.15 95.277 -108.614 92.492 -106.049 89.725 C-101.167 84.455 -96.553 79.05 -92.047 73.449 C-90.281 71.336 -88.479 69.411 -86.5 67.5 C-83.695 64.791 -81.254 61.917 -78.812 58.875 C-74.887 53.994 -70.732 49.414 -66.451 44.848 C-63.238 41.401 -60.201 37.866 -57.25 34.188 C-54.054 30.204 -50.68 26.631 -47.02 23.078 C-44.751 20.744 -42.727 18.286 -40.688 15.75 C-37.314 11.563 -33.854 7.488 -30.25 3.5 C-29.809 3.01 -29.809 3.01 -27.578 0.531 C-18.873 -8.016 -9.373 -7.139 0 0 Z " fill="#FDFDFD" transform="translate(385,6)"/>
<path d="M0 0 C15.492 -1.043 27.509 0.027 41.527 6.807 C43.99 7.995 46.473 9.12 48.973 10.23 C53.578 12.283 58.158 14.386 62.736 16.499 C68.423 19.115 74.124 21.701 79.824 24.29 C81.951 25.256 84.077 26.223 86.204 27.19 C95.629 31.474 105.062 35.742 114.5 40 C125.09 44.778 135.673 49.568 146.25 54.375 C146.589 54.529 146.589 54.529 148.305 55.309 C156.204 58.899 164.098 62.5 171.984 66.117 C174.243 67.153 176.502 68.188 178.761 69.223 C180.246 69.904 181.732 70.586 183.217 71.268 C190.632 74.673 198.055 78.052 205.551 81.277 C206.701 81.774 207.852 82.271 209.037 82.782 C211.142 83.686 213.252 84.58 215.365 85.464 C221.396 88.048 226.855 90.55 230.438 96.312 C231.229 100.092 231.151 103.3 230 107 C224.379 114.275 216.026 116.831 207.625 119.562 C155.966 136.956 105.246 158.531 55.54 180.863 C52.58 182.188 49.616 183.502 46.652 184.816 C28.911 192.703 11.322 200.89 -6.219 209.209 C-9.526 210.777 -12.838 212.334 -16.152 213.887 C-26.786 218.883 -37.219 224.178 -47.58 229.716 C-50.061 231.032 -52.552 232.328 -55.047 233.617 C-73.399 243.112 -91.3 253.381 -109.164 263.758 C-109.835 264.144 -110.505 264.529 -111.196 264.927 C-112.74 265.845 -114.232 266.848 -115.711 267.867 C-118 269 -118 269 -120.418 268.906 C-123.641 267.775 -126.371 266.242 -129.312 264.5 C-130.569 263.765 -131.825 263.031 -133.082 262.297 C-133.406 262.106 -133.406 262.106 -135.045 261.143 C-152.675 250.837 -170.623 240.906 -189 232 C-189 231.34 -189 230.68 -189 230 C-188.601 229.807 -188.601 229.807 -186.579 228.829 C-169.834 220.694 -153.538 212.317 -138 202 C-137.63 201.755 -137.63 201.755 -135.76 200.516 C-131.119 197.419 -126.54 194.244 -122 191 C-121.484 190.633 -121.484 190.633 -118.875 188.773 C-111.143 183.119 -103.96 176.889 -96.781 170.56 C-94.379 168.456 -91.95 166.385 -89.517 164.316 C-84.805 160.227 -80.809 155.528 -76.77 150.793 C-76.186 150.201 -75.602 149.61 -75 149 C-74.34 149 -73.68 149 -73 149 C-72.747 148.435 -72.495 147.871 -72.234 147.289 C-70.827 144.68 -69.164 142.641 -67.25 140.375 C-56.121 126.888 -45.97 113.441 -37.283 98.226 C-36.172 96.298 -35.031 94.397 -33.863 92.504 C-16.806 64.236 -7.822 31.795 0 0 Z " fill="#FDFDFD" transform="translate(464,193)"/>
<path d="M0 0 C0 31.02 0 62.04 0 94 C-10.099 98.488 -10.099 98.488 -14.871 100.008 C-15.926 100.349 -16.981 100.691 -18.069 101.042 C-18.624 101.221 -18.624 101.221 -21.438 102.125 C-43.035 109.209 -64.021 117.67 -84.888 126.661 C-87.877 127.947 -90.872 129.223 -93.867 130.496 C-123.984 143.364 -152.885 158.224 -181 175 C-182.031 175.614 -183.062 176.228 -184.125 176.86 C-194.733 183.191 -205.162 189.515 -215 197 C-216.62 198.132 -218.245 199.257 -219.875 200.375 C-222.802 202.384 -225.605 204.471 -228.34 206.73 C-228.916 207.199 -229.491 207.667 -230.084 208.149 C-231.218 209.076 -232.339 210.018 -233.447 210.976 C-235.02 212.254 -235.02 212.254 -238 214 C-242.334 212.876 -245.098 210.41 -248.41 207.488 C-255.041 201.789 -262.134 196.976 -269.438 192.188 C-270.766 191.31 -272.095 190.433 -273.423 189.555 C-289.802 178.762 -306.395 168.584 -323.664 159.273 C-325.833 158.091 -327.984 156.882 -330.129 155.656 C-367.527 134.323 -407.806 115.315 -448.82 102.07 C-449.522 101.843 -450.224 101.616 -450.946 101.382 C-454.267 100.314 -457.594 99.276 -460.937 98.282 C-462.104 97.92 -463.271 97.557 -464.473 97.184 C-465.496 96.88 -466.52 96.576 -467.574 96.263 C-470 95 -470 95 -471.345 92.364 C-471.561 91.584 -471.777 90.804 -472 90 C-468.618 88.873 -465.58 88.584 -462.027 88.238 C-460.573 88.092 -459.119 87.944 -457.665 87.796 C-456.896 87.718 -456.126 87.64 -455.334 87.559 C-420.039 83.922 -384.947 77.736 -351.57 65.35 C-345.573 63.197 -341.239 62.181 -335.117 64.808 C-332.954 65.869 -330.855 67.014 -328.75 68.188 C-327.063 69.103 -325.376 70.017 -323.688 70.93 C-322.777 71.424 -321.867 71.919 -320.93 72.429 C-316.711 74.691 -312.448 76.867 -308.188 79.049 C-266.156 100.608 -266.156 100.608 -249.633 112.363 C-248.578 113.11 -247.524 113.856 -246.438 114.625 C-245.529 115.298 -244.62 115.971 -243.684 116.664 C-240.12 118.438 -238.779 118.246 -235 117 C-231.995 115.352 -229.199 113.438 -226.375 111.5 C-217.852 105.806 -209.201 100.375 -200.438 95.062 C-199.85 94.704 -199.262 94.346 -198.656 93.978 C-191.208 89.442 -183.685 85.119 -176 81 C-174.231 80.034 -172.463 79.066 -170.695 78.098 C-148.586 66.032 -126.306 54.281 -103.479 43.625 C-100.914 42.427 -98.352 41.225 -95.791 40.02 C-72.447 29.042 -48.925 18.646 -25 9 C-24.37 8.746 -23.741 8.492 -23.092 8.231 C-19.192 6.66 -15.286 5.105 -11.375 3.562 C-10.433 3.191 -9.49 2.819 -8.52 2.435 C-7.675 2.107 -6.831 1.779 -5.961 1.441 C-5.237 1.16 -4.513 0.878 -3.767 0.588 C-2 0 -2 0 0 0 Z " fill="#FDFDFD" transform="translate(583,375)"/>
<path d="M0 0 C0.728 0.416 1.457 0.833 2.207 1.262 C6.865 3.642 11.457 5.013 16.52 6.199 C16.863 6.281 16.863 6.281 18.602 6.693 C29.714 9.156 40.824 9.076 52.145 9.012 C53.689 9.007 55.233 9.002 56.777 8.998 C60.525 8.987 64.272 8.97 68.02 8.949 C57.85 46.042 40.078 82.089 15.09 111.504 C12.161 114.963 9.413 118.558 6.648 122.148 C6.111 122.743 5.573 123.337 5.02 123.949 C4.36 123.949 3.7 123.949 3.02 123.949 C2.763 124.53 2.506 125.111 2.242 125.71 C0.905 128.16 -0.575 129.802 -2.543 131.777 C-3.252 132.491 -3.961 133.204 -4.692 133.939 C-5.447 134.685 -6.202 135.431 -6.98 136.199 C-7.755 136.968 -8.53 137.736 -9.328 138.528 C-13.821 142.944 -18.32 147.207 -23.398 150.953 C-25.569 152.631 -27.528 154.359 -29.531 156.227 C-30.172 156.799 -30.814 157.372 -31.474 157.962 C-32.739 159.093 -33.98 160.252 -35.19 161.443 C-37.115 163.117 -38.551 164.152 -40.98 164.949 C-44.975 164.358 -48.356 162.675 -51.98 160.949 C-54.126 160.032 -56.273 159.118 -58.422 158.207 C-60.796 157.165 -63.17 156.12 -65.543 155.074 C-96.279 141.627 -127.462 129.289 -158.738 117.164 C-159.146 117.006 -159.146 117.006 -161.209 116.206 C-165.161 114.673 -169.113 113.142 -173.068 111.617 C-194.59 103.3 -194.59 103.3 -198.98 97.949 C-200.604 93.078 -200.426 89.334 -198.855 84.449 C-196.568 80.849 -193.546 79.487 -189.77 77.645 C-189.152 77.343 -188.535 77.042 -187.899 76.732 C-181.539 73.666 -175.055 70.898 -168.54 68.183 C-164.919 66.673 -161.306 65.148 -157.691 63.625 C-156.957 63.316 -156.223 63.007 -155.466 62.689 C-148.323 59.681 -141.212 56.604 -134.105 53.512 C-123.894 49.072 -113.668 44.668 -103.43 40.291 C-91.66 35.259 -79.91 30.188 -68.202 25.013 C-58.838 20.876 -49.449 16.797 -40.048 12.745 C-34.049 10.158 -28.063 7.548 -22.105 4.867 C-21.046 4.394 -19.987 3.921 -18.895 3.434 C-16.92 2.551 -14.95 1.658 -12.984 0.756 C-12.114 0.368 -11.244 -0.019 -10.348 -0.418 C-9.972 -0.589 -9.972 -0.589 -8.07 -1.453 C-4.875 -2.367 -2.859 -1.517 0 0 Z " fill="#FDFDFD" transform="translate(199.98046875,206.05078125)"/>
<path d="M0 0 C-0.014 1.068 -0.028 2.135 -0.043 3.236 C-0.168 13.328 -0.23 23.419 -0.231 33.512 C-0.233 38.701 -0.257 43.887 -0.333 49.075 C-0.405 54.088 -0.418 59.098 -0.391 64.111 C-0.391 66.018 -0.411 67.925 -0.454 69.831 C-0.784 85.601 -0.784 85.601 3.659 90.285 C5.735 92.121 7.783 93.509 10.131 95.028 C13.202 97.139 14.481 98.628 16 102 C16.381 104.289 16.381 104.289 16.388 106.651 C16.398 107.542 16.407 108.433 16.417 109.35 C16.411 110.3 16.405 111.249 16.398 112.227 C16.401 113.211 16.404 114.196 16.407 115.21 C16.409 117.286 16.404 119.362 16.391 121.438 C16.375 124.621 16.391 127.802 16.41 130.984 C16.408 133.003 16.404 135.021 16.398 137.039 C16.405 137.992 16.411 138.945 16.417 139.927 C16.407 140.812 16.398 141.697 16.388 142.608 C16.386 143.386 16.383 144.163 16.381 144.965 C15.901 147.528 15.022 148.403 13 150 C8.239 151.551 2.989 151.199 -1.973 151.238 C-2.933 151.246 -3.893 151.254 -4.882 151.263 C-6.907 151.277 -8.931 151.287 -10.956 151.295 C-13.029 151.307 -15.102 151.327 -17.174 151.357 C-20.17 151.399 -23.164 151.416 -26.16 151.426 C-27.086 151.443 -28.012 151.461 -28.967 151.479 C-35.336 151.457 -35.336 151.457 -38.588 149.219 C-40.802 145.74 -40.457 142.229 -40.312 138.25 C-40.294 137.385 -40.276 136.521 -40.257 135.63 C-40.212 133.755 -40.158 131.879 -40.094 130.004 C-39.996 126.866 -39.947 123.729 -39.902 120.59 C-39.854 118.456 -39.803 116.322 -39.75 114.188 C-39.736 113.18 -39.722 112.173 -39.708 111.136 C-39.444 103.357 -38.086 98.885 -32.238 93.418 C-31.273 92.682 -30.307 91.946 -29.312 91.188 C-24.081 87.161 -24.081 87.161 -23 85 C-22.913 82.708 -22.893 80.413 -22.902 78.119 C-22.903 77.766 -22.903 77.766 -22.907 75.975 C-22.911 74.437 -22.917 72.899 -22.925 71.361 C-22.938 68.928 -22.944 66.495 -22.949 64.062 C-22.962 58.017 -22.987 51.973 -23.01 45.929 C-23.03 40.825 -23.046 35.721 -23.056 30.616 C-23.062 28.217 -23.075 25.818 -23.088 23.419 C-23.091 21.949 -23.095 20.48 -23.098 19.01 C-23.1 18.368 -23.1 18.368 -23.114 15.119 C-23 12 -23 12 -22 9 C-19.975 7.833 -19.975 7.833 -17.344 6.738 C-16.404 6.342 -15.464 5.946 -14.496 5.537 C-13.507 5.133 -12.519 4.729 -11.5 4.312 C-10.511 3.897 -9.523 3.481 -8.504 3.053 C-1.195 0 -1.195 0 0 0 Z " fill="#FDFCFD" transform="translate(646,341)"/>
<path d="M0 0 C5.494 4.916 9.46 9.745 10.406 17.199 C10.633 25.635 9.765 31.601 4 38 C-2.983 43.897 -8.795 45.446 -17.832 45.336 C-24.942 44.582 -30.192 41.228 -35 36.062 C-39.756 30.065 -40.628 24.478 -40 17 C-38.517 9.709 -35.734 4.99 -29.625 0.75 C-19.898 -5.302 -10.015 -6.044 0 0 Z " fill="#FB8110" transform="translate(531,24)"/>
<path d="M0 0 C2.29 1.867 4.058 3.751 6 6 C5.67 6.66 5.34 7.32 5 8 C4.515 7.506 4.031 7.013 3.531 6.504 C-1.244 1.94 -4.389 -0.064 -11 0 C-11.73 -0.024 -12.459 -0.049 -13.211 -0.074 C-18.599 -0.201 -18.599 -0.201 -21 1 C-20.01 1.33 -19.02 1.66 -18 2 C-18.33 3.32 -18.66 4.64 -19 6 C-19.626 6.133 -20.253 6.266 -20.898 6.402 C-21.716 6.579 -22.533 6.756 -23.375 6.938 C-24.187 7.112 -24.999 7.286 -25.836 7.465 C-28 8 -28 8 -30 9 C-29.34 9.33 -28.68 9.66 -28 10 C-28 10.66 -28 11.32 -28 12 C-29.715 13.219 -29.715 13.219 -31.938 14.5 C-35.895 16.789 -35.895 16.789 -37 19 C-37.168 21.023 -37.168 21.023 -37.188 23.375 C-37.202 24.146 -37.216 24.917 -37.23 25.711 C-36.972 28.283 -36.427 29.848 -35 32 C-34.01 32.33 -33.02 32.66 -32 33 C-32 31.35 -32 29.7 -32 28 C-31.34 28.33 -30.68 28.66 -30 29 C-30 30.65 -30 32.3 -30 34 C-28.02 34 -26.04 34 -24 34 C-24 34.66 -24 35.32 -24 36 C-24.99 36 -25.98 36 -27 36 C-26.67 37.32 -26.34 38.64 -26 40 C-24.064 40.504 -22.126 41.003 -20.188 41.5 C-19.109 41.778 -18.03 42.057 -16.918 42.344 C-14 43 -14 43 -11 43 C-11 42.34 -11 41.68 -11 41 C-6.71 40.34 -2.42 39.68 2 39 C-4.716 44.373 -9.445 45.549 -17.902 45.371 C-25.93 44.409 -31.722 40.196 -36.66 33.969 C-40.288 28.637 -40.524 23.248 -40 17 C-38.517 9.709 -35.734 4.99 -29.625 0.75 C-19.671 -5.443 -10.305 -5.754 0 0 Z " fill="#F49224" transform="translate(531,24)"/>
<path d="M0 0 C0.66 0.33 1.32 0.66 2 1 C2 2.65 2 4.3 2 6 C3.98 6 5.96 6 8 6 C8 6.66 8 7.32 8 8 C7.01 8 6.02 8 5 8 C5.33 9.32 5.66 10.64 6 12 C7.936 12.504 9.874 13.003 11.812 13.5 C12.891 13.778 13.97 14.057 15.082 14.344 C18 15 18 15 21 15 C21 14.34 21 13.68 21 13 C25.29 12.34 29.58 11.68 34 11 C27.287 16.371 22.565 17.543 14.113 17.375 C9.09 16.77 4.982 15.136 1 12 C-0.619 9.618 -1.226 7.819 -2 5 C-1.34 5 -0.68 5 0 5 C0 3.35 0 1.7 0 0 Z " fill="#F37F23" transform="translate(499,52)"/>
<path d="M0 0 C0.33 1.32 0.66 2.64 1 4 C1.66 4 2.32 4 3 4 C3 4.66 3 5.32 3 6 C2.01 6 1.02 6 0 6 C-0.144 6.598 -0.289 7.196 -0.438 7.812 C-0.887 9.562 -1.429 11.287 -2 13 C-2.894 18.634 -2.2 22.296 1 27.062 C1.98 28.39 2.974 29.708 4 31 C3.67 31.66 3.34 32.32 3 33 C-2.835 26.798 -5.41 21.891 -5.191 13.242 C-4.75 8.07 -3.442 3.912 0 0 Z " fill="#E58847" transform="translate(496,30)"/>
<path d="M0 0 C3.11 2.84 3.927 4.869 4.203 9.145 C4.219 10.355 4.234 11.565 4.25 12.812 C4.263 13.414 4.263 13.414 4.328 16.457 C3.973 20.29 2.922 22.697 1 26 C0.34 25.67 -0.32 25.34 -1 25 C-1 23.68 -1 22.36 -1 21 C-1.66 20.67 -2.32 20.34 -3 20 C-1.336 15.265 -1.336 15.265 0.625 13.719 C2 12 2 12 1.855 9.082 C1.635 8.003 1.415 6.924 1.188 5.812 C0.975 4.726 0.762 3.639 0.543 2.52 C0.453 2.104 0.453 2.104 0 0 Z " fill="#ED7425" transform="translate(537,32)"/>
<path d="M0 0 C1.124 0.004 2.248 0.008 3.406 0.012 C6.331 0.296 8.027 0.791 10.5 2.312 C10.5 3.303 10.5 4.293 10.5 5.312 C7.53 4.652 4.56 3.992 1.5 3.312 C1.5 3.973 1.5 4.633 1.5 5.312 C-0.81 5.312 -3.12 5.312 -5.5 5.312 C-5.5 4.652 -5.5 3.992 -5.5 3.312 C-7.15 3.312 -8.8 3.312 -10.5 3.312 C-7.075 0.131 -4.6 -0.069 0 0 Z " fill="#FA8F0C" transform="translate(518.5,22.6875)"/>
<path d="M0 0 C7.81 -0.504 14.718 0.509 20.965 5.602 C22.377 7.003 23.7 8.494 25 10 C24.67 10.66 24.34 11.32 24 12 C23.515 11.506 23.031 11.013 22.531 10.504 C17.634 5.824 14.789 4.109 8 4 C6.845 3.979 5.69 3.959 4.5 3.938 C3.675 3.958 2.85 3.979 2 4 C2 3.34 2 2.68 2 2 C1.34 1.34 0.68 0.68 0 0 Z " fill="#E28841" transform="translate(512,20)"/>
<path d="M0 0 C-6.027 3.593 -9.948 5.143 -17.062 5.188 C-17.584 5.195 -17.584 5.195 -20.223 5.23 C-23 5 -23 5 -26 3 C-21.71 3 -17.42 3 -13 3 C-13 2.34 -13 1.68 -13 1 C-11.398 0.636 -9.793 0.284 -8.188 -0.062 C-7.294 -0.26 -6.401 -0.457 -5.48 -0.66 C-3 -1 -3 -1 0 0 Z " fill="#E5743B" transform="translate(533,64)"/>
<path d="M0 0 C-1.32 0.33 -2.64 0.66 -4 1 C-4 1.66 -4 2.32 -4 3 C-5.062 4.562 -5.062 4.562 -7 6 C-10.688 6.688 -10.688 6.688 -14 7 C-14.66 6.01 -15.32 5.02 -16 4 C-2.353 -1.176 -2.353 -1.176 0 0 Z " fill="#F7F4FA" transform="translate(223,445)"/>
<path d="M0 0 C0.66 0.33 1.32 0.66 2 1 C1.216 1.454 0.433 1.908 -0.375 2.375 C-3 4 -3 4 -5 6 C-6.98 7.038 -8.998 7.965 -11.027 8.902 C-13.068 10.038 -14.437 11.28 -16 13 C-17.32 12.34 -18.64 11.68 -20 11 C-19.394 10.709 -18.788 10.417 -18.164 10.117 C-12.571 7.381 -7.271 4.405 -2.031 1.039 C-1.361 0.696 -0.691 0.353 0 0 Z " fill="#F6F2FC" transform="translate(414,452)"/>
<path d="M0 0 C2.127 0.785 4.252 1.578 6.375 2.375 C7.558 2.816 8.742 3.257 9.961 3.711 C13 5 13 5 15 7 C14.67 7.165 14.67 7.165 13 8 C11.33 7.341 9.664 6.673 8 6 C6.68 6 5.36 6 4 6 C3.34 6 2.68 6 2 6 C1.34 4.02 0.68 2.04 0 0 Z " fill="#F6F1FD" transform="translate(495,196)"/>
<path d="M0 0 C3.736 1.472 3.736 1.472 5 4 C3.125 5.75 3.125 5.75 0 7 C-3.517 6.05 -6.73 4.594 -10 3 C-6.283 1.864 -4.529 2.333 -1 4 C-0.67 3.34 -0.34 2.68 0 2 C-0.66 1.67 -1.32 1.34 -2 1 C-1.34 0.67 -0.68 0.34 0 0 Z " fill="#F5F2FA" transform="translate(158,364)"/>
<path d="M0 0 C1.32 0.66 2.64 1.32 4 2 C3.062 3.875 3.062 3.875 1 6 C-1.955 6.954 -4.937 7.512 -8 8 C-8 6.68 -8 5.36 -8 4 C-7.34 4 -6.68 4 -6 4 C-5.67 4.33 -5.34 4.66 -5 5 C-2.938 4.562 -2.938 4.562 -1 4 C-0.67 2.68 -0.34 1.36 0 0 Z " fill="#EE6D1B" transform="translate(533,57)"/>
<path d="M0 0 C0.99 0.33 1.98 0.66 3 1 C1.68 1.33 0.36 1.66 -1 2 C-0.67 1.34 -0.34 0.68 0 0 Z M-3 2 C-2.34 2.33 -1.68 2.66 -1 3 C-1.99 3.99 -2.98 4.98 -4 6 C-4 3 -4 3 -3 2 Z M-7 5 C-6.34 5 -5.68 5 -5 5 C-5.66 6.32 -6.32 7.64 -7 9 C-7.66 8.34 -8.32 7.68 -9 7 C-8.34 6.34 -7.68 5.68 -7 5 Z M-9 8 C-9 9.65 -9 11.3 -9 13 C-9.825 12.67 -9.825 12.67 -14 11 C-11.25 8 -11.25 8 -9 8 Z " fill="#F7F2FA" transform="translate(350,378)"/>
<path d="M0 0 C0.66 0.33 1.32 0.66 2 1 C1.691 1.557 1.381 2.114 1.062 2.688 C0 5 0 5 -0.312 7.438 C-1.267 10.993 -3.307 12.57 -6 15 C-6.66 15.66 -7.32 16.32 -8 17 C-8 12.905 -6.031 10.232 -4 6.812 C-3.618 6.158 -3.237 5.504 -2.844 4.83 C-1.902 3.217 -0.952 1.608 0 0 Z " fill="#F6F0FE" transform="translate(267,282)"/>
</svg>
